# xmcd
#
# Track frame offsets:
#	182
#	17732
#	28687
#	43405
#	60690
#	81482
#	92797
#	105660
#	120495
#	143077
#	151977
#	165640
#
# Disc length: 2384 seconds
#
# Revision: 2
# Processed by: cddbd v1.5.2PL0 Copyright (c) Steve Scherf et al.
# Submitted via: audiograbber 1.80.04
#
DISCID=9c094e0c
DTITLE=Various Artists / The Rocky Horror Show (Selected Hightlights)
DYEAR=1995
DGENRE=Musical
TTITLE0=Anita Dobson / Science Fiction
TTITLE1=Tim Flavin & Kim Criswell / Damn It Janet
TTITLE2=Kim Criswell, Tim Flavin, Aidan Bell & Phantoms Cast / Over At Frankens
TTITLE2=tein's Place
TTITLE3=Howard Samuels, Tim Flavin & Phantoms Cast / Sweet Transvestite
TTITLE4=Aidan Bell, Anita Dobson, Issy Van Randwyck, Christopher Lee & Phantoms
TTITLE4= Cast / The Time Warp
TTITLE5=Kim Criswell & Adam Caine / Touch A-Touch A-Touch Me
TTITLE6=Tim Flavin & Kim Criswell / Once In A While
TTITLE7=Brian Greene, Christopher Lee & Phantoms Cast / Eddie's Teddy
TTITLE8=Issy Van Randwyck, Adam Caine, Tim Flavin, Kim Criswell & Howard Samuel
TTITLE8=s / Rose Tint My World
TTITLE9=Howard Samuels & Phantoms Cast / Hot Patootie
TTITLE10=Howard Samuels & Phantoms Cast / I'm Going Home
TTITLE11=Tim Flavin, Kim Criswell & Phantoms Cast / Super Heros
EXTD=
EXTT0=
EXTT1=
EXTT2=
EXTT3=
EXTT4=
EXTT5=
EXTT6=
EXTT7=
EXTT8=
EXTT9=
EXTT10=
EXTT11=
PLAYORDER=
.
